<svg width="29" height="20" viewBox="0 0 29 20" fill="none" xmlns="http://www.w3.org/2000/svg">
<g clip-path="url(#clip0_229_2199)">
<path fill-rule="evenodd" clip-rule="evenodd" d="M28.705 4.31563C28.705 4.31563 28.4218 2.35566 27.5486 1.49485C26.4465 0.3633 25.2098 0.356358 24.6434 0.289251C20.5889 0 14.4976 0 14.4976 0C14.4976 0 8.40877 0 4.34953 0.289251C3.78312 0.356358 2.54883 0.360986 1.44434 1.49485C0.566406 2.35566 0.287923 4.31563 0.287923 4.31563C0.108571 5.84449 0.0124603 7.38163 0 8.92051L0 11.0749C0.0126834 12.6137 0.108793 14.1509 0.287923 15.6797C0.287923 15.6797 0.571126 17.6397 1.43726 18.5121C2.54175 19.646 3.9908 19.6089 4.63981 19.7293C6.95972 19.9468 14.5 20.0116 14.5 20.0116C14.5 20.0116 20.5959 20.0116 24.6481 19.7177C25.2169 19.6506 26.4512 19.6436 27.5557 18.5121C28.4265 17.6513 28.7097 15.689 28.7097 15.689C28.8891 14.1601 28.9852 12.623 28.9976 11.0841V8.9182C28.9819 7.37922 28.8834 5.84213 28.7026 4.31332L28.705 4.31563Z" fill="white"/>
<path fill-rule="evenodd" clip-rule="evenodd" d="M11.4922 13.6934V5.70312L19.3251 9.71099L11.4922 13.6934Z" fill="black"/>
</g>
<defs>
<clipPath id="clip0_229_2199">
<rect width="29" height="20" fill="white"/>
</clipPath>
</defs>
</svg>
